<?xml version="1.0" encoding="utf-8"?>
<!-- Generator: Adobe Illustrator 18.0.0, SVG Export Plug-In . SVG Version: 6.00 Build 0)  -->
<!DOCTYPE svg PUBLIC "-//W3C//DTD SVG 1.1//EN" "http://www.w3.org/Graphics/SVG/1.1/DTD/svg11.dtd">
<svg version="1.1" id="Layer_1" xmlns="http://www.w3.org/2000/svg" xmlns:xlink="http://www.w3.org/1999/xlink" x="0px" y="0px"
	 viewBox="0 0 75.2 58.5" enable-background="new 0 0 75.2 58.5" xml:space="preserve">
<path fill="#BCBEC0" d="M36.5,43.4c0,0.1-2.3-9.4-9.1-17.4c-6.5-9.1-20.2-9.8-21.1-9c-2.5,0.6-3.9,2.9-3.1,5
	c0.8,2.1,2.9,3.4,4.6,2.9c0.7-0.3,9.2-2.5,16.8,4C32,34.6,36.5,43.5,36.5,43.4z"/>
<path fill="#BCBEC0" d="M36.2,54.6c-0.1,0.1-0.2-8-5.1-15.5c-4.9-8.3-16.3-9.6-17-9.2c-2.2,0.2-3.5,2.2-2.9,4.4
	c0.5,2.2,2.1,3.8,3.6,3.6c0.6,0,7.7-1.6,13.4,3.8C33.8,46.7,36.3,54.7,36.2,54.6z"/>
<path fill="#BCBEC0" d="M35.8,45.3c0,0.1,3.7-8.6,10.2-14.6c6.6-7,14.8-5.3,15.4-5.1c1.6,0.4,3.5-1,4.2-3.1c0.7-2.1-0.7-4.3-3.3-4.9
	c-0.6,0.1-4-0.3-8.3,1.1c-4.3,1.5-8.4,5.1-11.1,9.2C37.4,36.3,35.8,45.4,35.8,45.3z"/>
<path fill="#BCBEC0" d="M36.5,56.4c0,0.1,2-7.6,7-12.9c5-5.8,11.8-4.7,12.3-4.6c1.4,0.1,2.8-1.6,3.2-3.7c0.4-2.2-1.1-4.1-3.2-4.3
	c-0.8-0.5-12,1.9-15.5,10.3C36.3,48.6,36.6,56.4,36.5,56.4z"/>
<path fill="#BCBEC0" d="M37.4,40.5c0,0.1-1-9.2,2.4-17.1c3.4-8.5,12.5-8.7,13.1-8.6c1.8-0.1,3.3-1.5,3.4-3.1c0.1-1.7-1.8-3-4.1-2.9
	c-0.7-0.5-13.3,3-15.2,13.6C34.7,31.9,37.4,40.6,37.4,40.5z"/>
<path fill="#BCBEC0" d="M35.6,29.1c0,0.1-1.6-5.7-0.5-11c1.1-5.6,6.1-6.7,6.5-6.9c1-0.3,1.4-1.9,1-3.5c-0.4-1.6-2-2.5-3.5-2
	c-0.6-0.2-7.9,5-7,12.1C32.5,24.2,35.7,29.2,35.6,29.1z"/>
<path fill="#BCBEC0" d="M32.2,21c0,0.1-1.9-3.5-1.9-7c-0.1-3.8,2.9-5.2,3.1-5.3c0.6-0.3,0.6-1.4,0.1-2.5c-0.5-1-1.6-1.4-2.5-0.8
	c-0.4,0-4.3,4.4-2.7,8.8C29.5,18.2,32.3,21,32.2,21z"/>
<path fill="#BCBEC0" d="M31.6,26.7c0,0.1,0.9-3.5-1.4-6.8c-2.3-3.4-6.5-4.4-6.8-4.5c-0.9-0.2-1.6,0.6-1.7,1.7
	c-0.1,1.1,0.4,2.1,1,2.3c0.3,0.1,3.6-0.1,6,1.9C31.2,23.1,31.7,26.8,31.6,26.7z"/>
</svg>
